<svg width="17.6" height="17.6" viewBox="0 0 17.6 17.6" xmlns="http://www.w3.org/2000/svg"><defs><style>.cls-1{fill:#101828;}</style></defs><path class="cls-1" d="M17.43,18.57a.81.81,0,0,0,1.14-1.14Zm-2.73-5a.8.8,0,0,0-1.13,1.13Zm.72-4.46a6.3,6.3,0,0,1-6.31,6.31V17A7.91,7.91,0,0,0,17,9.11ZM9.11,15.42A6.31,6.31,0,0,1,2.8,9.11H1.2A7.91,7.91,0,0,0,9.11,17ZM2.8,9.11A6.32,6.32,0,0,1,9.11,2.8V1.2A7.91,7.91,0,0,0,1.2,9.11ZM9.11,2.8a6.31,6.31,0,0,1,6.31,6.31H17A7.91,7.91,0,0,0,9.11,1.2Zm9.46,14.63L14.7,13.57,13.57,14.7l3.86,3.87Z" transform="translate(-1.2 -1.2)"/></svg>
